<?xml version="1.0" encoding="utf-8"?>
<!-- Generator: Adobe Illustrator 21.1.0, SVG Export Plug-In . SVG Version: 6.00 Build 0)  -->
<svg version="1.1" xmlns="http://www.w3.org/2000/svg" xmlns:xlink="http://www.w3.org/1999/xlink" x="0px" y="0px"
	 viewBox="0 0 200 200" style="enable-background:new 0 0 200 200;" xml:space="preserve">
<style type="text/css">
	.st0{fill:#FF5000;}
	.st1{fill:#FFFFFF;}
</style>
<g id="Paint">
	<path class="st0" d="M66.4,93.6c-2-1.6-4.2-2.7-6.5-3.4c-1.9-5.8-7.5-9.4-13.8-10c-10.8-1.1-21.7,4-29.2,11.6
		c-8.5,8.6-12.3,19.7-13.8,31.5c-1.2,9.9-2.2,22.7,1.3,32.2c4,11.1,16,19,24.4,26.7c5.8,5.3,14.8,5.7,20.5,0c3.2-3.2,4.7-8.1,4-12.7
		c11.8-4.1,20.4-16.4,24.5-28.6C83.1,124.9,80.4,104.5,66.4,93.6z M51.1,130c-0.8,3.7-2.7,7.3-4.8,10.3c0.6-0.9-0.9,0.6-1.5,1.3
		c-0.2,0.1-0.4,0.1-0.5,0.2c-0.1,0-0.2-0.1-0.4-0.1c-2.4-0.8-4.9-0.7-7.3-0.1c-1.6-1.1-3.3-2-5.3-2.4c-0.1-3.5-0.1-7,0.2-10.5
		c0.5-7.5,2.7-14.9,9.3-19.1"/>
	<path class="st1" d="M40,111.5c-7.8,0-14.5,6.7-14.5,14.5c0,7.9,6.6,14.5,14.5,14.5c7.8,0,14.5-6.7,14.5-14.5
		C54.5,118.1,47.9,111.5,40,111.5z"/>
	<path class="st1" d="M0.5,112.2l1.5,64.2c0.2,0.1,1.7,1,2.4,1.3c0.1,0.1,0.2,0.2,0.3,0.3c0,0,0.2,0.4,0.8,1.3
		c1.1,1.9,2.6,3.8,4,5.4c2.1,2.5,4.7,4.4,7.4,6.3c0.3,0.2,1.6,0.9,2.2,1.3c0,0.1,0.1,0.1,0.1,0.2c0,0,0,0-0.1,0
		c-0.7-0.6-0.6-0.5,0.2,0.2c0.1,0.1,0.1,0.2,0.2,0.4c3.8,6.9,13.2,9.1,19.8,5.2c4.7-2.8,7.2-7.8,7.1-12.9c3-5.5,2.4-12.9-2.4-17.3
		l-27.4-25.4c-2-1.8,4.2,8.6-3.2-2.1c0.7,1-3-4.9-3.1-4.7c-0.1-0.5-0.3-1.1-0.4-1.6c0-0.2-0.2-1.7-0.2-2.2c0-1.3,0-2.6,0-3.9
		c0.1-1.1,0.2-2.1,0.2-3.2c0-0.5,0.1-0.8,0.1-1.1c0-0.3,0.1-0.7,0.2-1.3c0.6-4,0-8.1-1.8-11.3c0.5-0.5,1-1,1.5-1.6
		c6.5-8.8,14.8-17,24.3-22.6c0.6-0.4,1.2-0.7,1.9-1c1.2,2.1,3.4,3.6,6,3.6h9.4c0.1,0.1,0.2,0.1,0.4,0.2c2.9,1.1,5.8,1.1,8.8,0.7
		c3.8-0.4,7-2.9,7-7c0-3.4-3.2-7.4-7-7c-3.9,0.5-3.9-0.1-6.8-2.3c-2.4-1.8-5-2.9-7.9-3.4C39.6,69.5,33,71.7,27.4,75"/>
	<path class="st0" d="M58.1,167.1c-9.5-12-28.2-19.2-31.2-35.4c-1.7-8.8-15.2-5.1-13.5,3.7c3.7,19.7,23.5,27.3,34.8,41.6"/>
	<path class="st0" d="M188.5,32.5c-2.4-13.8-9.3-27.2-25.3-26.7c-6.9,0.2-15,2.5-20.5,6.7c-6.2,4.7-7.2,12.8-6.4,20.1
		c0.9,8.1,4.2,16.2,8.3,23.1c1.9,3.2,4.3,6.2,7.3,8.2c0.6,1.9,1.7,3.7,2.5,5.5c0.9,1.9,2.5,2.9,4.2,3.2c3,3,8.3,3.6,10.7-1.2
		c1-2,1.8-4.1,2.4-6.2c4-3.7,7.7-7.7,11.1-12C187.9,46.7,189.9,40.8,188.5,32.5z M175,39.6c-0.9,3.6-4.9,7.2-7.5,9.9
		c-1.7-0.7-3.7-0.6-5.8,0.5c-0.9,0.5-2,1.1-3,1.6c-1.8-1.5-3.1-4.9-3.9-6.6c-2.2-4.4-4.2-9.3-4.7-14.2c-0.2-1.8-0.4-4.7,0.4-6.4
		c0.8-1.6,2.9-2.2,4.6-2.8c3.7-1.4,8.3-2.8,12.1-1.5c3.3,1.1,4.8,4.3,5.8,7.4C174.1,31,175.9,36.2,175,39.6z"/>
	<path class="st1" d="M179.6,72.7c-9-2-17.3-6-24-12.4c-7.7-7.3-12-16.7-15.9-26.4c-1.5-3.5-4.6-5.9-8.6-4.9
		c-3.3,0.9-6.3,5.1-4.9,8.6c4.9,11.9,10.1,23.6,19.5,32.6c8.4,8,18.9,13.5,30.2,16C184.6,88.1,188.4,74.6,179.6,72.7z"/>
	<path class="st1" d="M163,20.5c-8.6,0-16.9,7.6-16.5,16.5c0.4,8.9,7.2,16.5,16.5,16.5c8.6,0,16.9-7.6,16.5-16.5
		C179.1,28.1,172.3,20.5,163,20.5z"/>
	<path class="st0" d="M165.1,62c-10.5-5.3-22.2-12.3-18.5-26c2-7.5-9.6-10.7-11.6-3.2c-2.3,8.4-1,17.4,4.1,24.6
		c5,7,12.5,11.1,20,14.9C166,75.9,172,65.5,165.1,62z"/>
</g>
<g id="Capa_1">
	<g>
		<path d="M70.9,160.2c15.1-17.1,15.1-44.9,0-62.1c-7.5-8.4-17.4-13.1-28-13.1s-20.5,4.6-28,13.1c-15.1,17.1-15.1,44.9,0,62.1
			l28,31.6 M65.9,155.8l-23.1,26.1l-23.1-26.1c-13-14.7-13-38.6,0-53.3c6.2-7,14.4-10.8,23.1-10.8s16.9,3.9,23.1,10.8
			C79,117.2,79,141.1,65.9,155.8z"/>
		<path d="M161.9,83.5l21.2-23.9c11.4-12.9,11.4-33.8,0-46.7C177.5,6.5,169.9,3,161.9,3c-8,0-15.6,3.5-21.2,9.9
			c-11.4,12.9-11.4,33.8,0,46.7L161.9,83.5z M145.6,17.2c4.4-4.9,10.2-7.7,16.3-7.7c6.1,0,11.9,2.7,16.3,7.7c9.3,10.5,9.3,27.5,0,38
			l-16.3,18.4l-16.3-18.4C136.3,44.7,136.3,27.7,145.6,17.2z"/>
		<path d="M174.6,182c-1.8-0.4-3.5,0.7-3.9,2.5c-0.4,1.7-1.1,3.2-2.2,4.6c-1.1,1.4-0.9,3.5,0.6,4.6c0.6,0.5,1.3,0.7,2,0.7
			c1,0,1.9-0.4,2.6-1.3c1.7-2.1,2.8-4.6,3.4-7.2C177.4,184.2,176.3,182.4,174.6,182z"/>
		<path d="M106.9,104.8c-1.4,0-2.8-0.3-4.1-0.8c-1.7-0.6-3.6,0.2-4.2,1.9c-0.6,1.7,0.2,3.6,1.9,4.2c2.1,0.8,4.2,1.2,6.4,1.2h1.2
			c1.8,0,3.3-1.5,3.3-3.3s-1.5-3.3-3.3-3.3H106.9z"/>
		<path d="M99.1,84c0.6,0,1.2-0.2,1.7-0.5c1.5-0.9,3.1-1.5,4.8-1.7c1.8-0.2,3.1-1.8,2.9-3.6c-0.2-1.8-1.8-3.1-3.6-2.9
			c-2.7,0.3-5.2,1.2-7.5,2.6c-1.5,1-2,3-1,4.5C96.9,83.5,98,84,99.1,84z"/>
		<path d="M61.2,193.4h-6.6c-1.8,0-3.3,1.5-3.3,3.3c0,1.8,1.5,3.3,3.3,3.3h6.6c1.8,0,3.3-1.5,3.3-3.3
			C64.4,194.9,63,193.4,61.2,193.4z"/>
		<path d="M120,134.3c-0.3,0-0.6,0-0.8,0c-1.8,0.1-3.2,1.6-3.1,3.4c0.1,1.8,1.5,3.1,3.3,3.1c0,0,0.1,0,0.1,0l6.4,0
			c1.8,0,3.3-1.5,3.3-3.3s-1.5-3.3-3.3-3.3H120z"/>
		<path d="M118.4,81.8h6.6c1.8,0,3.3-1.5,3.3-3.3s-1.5-3.3-3.3-3.3h-6.6c-1.8,0-3.3,1.5-3.3,3.3S116.6,81.8,118.4,81.8z"/>
		<path d="M158.7,134.3c-1.8,0-3.3,1.5-3.3,3.3s1.5,3.3,3.3,3.3h6.6c1.8,0,3.3-1.5,3.3-3.3s-1.5-3.3-3.3-3.3H158.7z"/>
		<path d="M170.4,108.1c0-1.8-1.5-3.3-3.3-3.3h-6.6c-1.8,0-3.3,1.5-3.3,3.3c0,1.8,1.5,3.3,3.3,3.3h6.6
			C169,111.3,170.4,109.9,170.4,108.1z"/>
		<path d="M139,140.9h6.6c1.8,0,3.3-1.5,3.3-3.3s-1.5-3.3-3.3-3.3H139c-1.8,0-3.3,1.5-3.3,3.3S137.2,140.9,139,140.9z"/>
		<path d="M144.6,81.8c1.8,0,3.3-1.5,3.3-3.3s-1.5-3.3-3.3-3.3h-6.6c-1.8,0-3.3,1.5-3.3,3.3s1.5,3.3,3.3,3.3H144.6z"/>
		<path d="M121.2,104.8c-1.8,0-3.3,1.5-3.3,3.3c0,1.8,1.5,3.3,3.3,3.3h6.6c1.8,0,3.3-1.5,3.3-3.3s-1.5-3.3-3.3-3.3H121.2z"/>
		<path d="M150.7,108.1c0-1.8-1.5-3.3-3.3-3.3h-6.6c-1.8,0-3.3,1.5-3.3,3.3c0,1.8,1.5,3.3,3.3,3.3h6.6
			C149.3,111.3,150.7,109.9,150.7,108.1z"/>
		<path d="M197,120c-0.3-1.8-2-3-3.8-2.7c-1.8,0.3-3,2-2.7,3.8c0.1,0.6,0.1,1.2,0.1,1.8c0,1.1-0.2,2.2-0.5,3.2
			c-0.5,1.7,0.5,3.6,2.2,4.1c0.3,0.1,0.6,0.1,0.9,0.1c1.4,0,2.7-0.9,3.2-2.4c0.5-1.7,0.7-3.4,0.7-5.1C197.2,121.9,197.1,121,197,120
			z"/>
		<path d="M140,193.4h-6.6c-1.8,0-3.3,1.5-3.3,3.3c0,1.8,1.5,3.3,3.3,3.3h6.6c1.8,0,3.3-1.5,3.3-3.3
			C143.2,194.9,141.8,193.4,140,193.4z"/>
		<path d="M120.3,193.4h-6.6c-1.8,0-3.3,1.5-3.3,3.3c0,1.8,1.5,3.3,3.3,3.3h6.6c1.8,0,3.3-1.5,3.3-3.3
			C123.5,194.9,122.1,193.4,120.3,193.4z"/>
		<path d="M156.4,167.2c0-1.8-1.5-3.3-3.3-3.3h-6.6c-1.8,0-3.3,1.5-3.3,3.3s1.5,3.3,3.3,3.3h6.6C154.9,170.4,156.4,169,156.4,167.2z
			"/>
		<path d="M136.7,167.2c0-1.8-1.5-3.3-3.3-3.3h-6.6c-1.8,0-3.3,1.5-3.3,3.3s1.5,3.3,3.3,3.3h6.6C135.2,170.4,136.7,169,136.7,167.2z
			"/>
		<path d="M159.4,193.4h-6.3c-1.8,0-3.3,1.5-3.3,3.3c0,1.8,1.5,3.3,3.3,3.3l6.5,0l0.1-3.3v3.3c1.8,0,3.2-1.5,3.2-3.3
			C162.8,194.9,161.2,193.4,159.4,193.4z"/>
		<path d="M171,176.1c0.7,0,1.4-0.2,2-0.7c1.4-1.1,1.7-3.2,0.6-4.6c-1.7-2.1-3.8-3.8-6.2-5c-1.6-0.8-3.6-0.1-4.4,1.5
			c-0.8,1.6-0.1,3.6,1.5,4.4c1.5,0.8,2.9,1.9,3.9,3.2C169.1,175.7,170.1,176.1,171,176.1z"/>
		<path d="M183.6,133.4c-1.4,0.6-2.9,0.9-4.4,0.9h-0.7c-1.8,0-3.3,1.5-3.3,3.3s1.5,3.3,3.3,3.3h0.7c2.4,0,4.8-0.5,7-1.4
			c1.7-0.7,2.5-2.6,1.8-4.3C187.2,133.5,185.2,132.7,183.6,133.4z"/>
		<path d="M93.9,101c1.7-0.6,2.7-2.4,2.1-4.1c-0.4-1.2-0.6-2.4-0.6-3.6c0-0.5,0-1,0.1-1.5c0.2-1.8-1-3.4-2.8-3.7
			C90.8,88,89.2,89.2,89,91c-0.1,0.7-0.1,1.5-0.1,2.3c0,1.9,0.3,3.8,0.9,5.6c0.5,1.4,1.7,2.3,3.1,2.3
			C93.2,101.2,93.5,101.1,93.9,101z"/>
		<path d="M80.9,193.4h-6.6c-1.8,0-3.3,1.5-3.3,3.3c0,1.8,1.5,3.3,3.3,3.3h6.6c1.8,0,3.3-1.5,3.3-3.3
			C84.1,194.9,82.7,193.4,80.9,193.4z"/>
		<path d="M113.9,169.1c1.2,0,2.4-0.7,3-1.9c0.8-1.7,0-3.6-1.6-4.4c-1.5-0.7-2.9-1.8-4-3.1c-1.2-1.4-3.2-1.6-4.6-0.4
			c-1.4,1.2-1.6,3.2-0.4,4.6c1.7,2,3.9,3.7,6.3,4.8C113,169,113.4,169.1,113.9,169.1z"/>
		<path d="M188.2,107.2c-2.3-1.4-4.9-2.2-7.6-2.4c-1.8-0.1-3.4,1.2-3.5,3c-0.1,1.8,1.2,3.4,3,3.5c1.7,0.1,3.3,0.6,4.8,1.5
			c0.5,0.3,1.1,0.4,1.6,0.4c1.1,0,2.2-0.6,2.8-1.6C190.3,110.1,189.7,108.1,188.2,107.2z"/>
		<path d="M100.6,193.4H94c-1.8,0-3.3,1.5-3.3,3.3c0,1.8,1.5,3.3,3.3,3.3h6.6c1.8,0,3.3-1.5,3.3-3.3
			C103.8,194.9,102.4,193.4,100.6,193.4z"/>
		<path d="M108.7,150.2c0.3-1.7,1-3.2,2-4.6c1.1-1.5,0.8-3.5-0.7-4.6c-1.5-1.1-3.5-0.8-4.6,0.7c-1.6,2.2-2.7,4.6-3.2,7.3
			c-0.3,1.8,0.8,3.5,2.6,3.8c0.2,0,0.4,0.1,0.6,0.1C107.1,152.9,108.4,151.8,108.7,150.2z"/>
		<path d="M162.7,52.2c10,0,18.1-8.1,18.1-18.1s-8.1-18.1-18.1-18.1c-10,0-18.1,8.1-18.1,18.1S152.7,52.2,162.7,52.2z M162.7,22.7
			c6.3,0,11.5,5.2,11.5,11.5s-5.2,11.5-11.5,11.5s-11.5-5.2-11.5-11.5S156.4,22.7,162.7,22.7z"/>
		<path d="M42.9,104.8c-10.9,0-19.7,8.8-19.7,19.7s8.8,19.7,19.7,19.7s19.7-8.8,19.7-19.7S53.7,104.8,42.9,104.8z M42.9,137.6
			c-7.2,0-13.1-5.9-13.1-13.1s5.9-13.1,13.1-13.1S56,117.2,56,124.5S50.1,137.6,42.9,137.6z"/>
	</g>
</g>
</svg>
